<svg xmlns="http://www.w3.org/2000/svg" xmlns:xlink="http://www.w3.org/1999/xlink" version="1.1" x="0px" y="0px" viewBox="0 0 100 125" style="enable-background:new 0 0 100 100;" xml:space="preserve"><g><path fill="#6621c4" d="M41.55,76.062c-0.364-3.396,1.555-6.391,4.293-6.72c-0.001-0.002-2.925,0.312-2.925,0.312   c-2.767,0.296-5.306-2.236-5.672-5.654c-0.366-3.42,1.58-6.433,4.347-6.729l-1.422,0.152c-2.767,0.296-5.306-2.235-5.672-5.655   c-0.366-3.419,1.58-6.431,4.347-6.728l4.632-0.496H6.744C3.579,44.519-0.034,41.185,0,36.865c0.035-4.319,3.583-7.273,6.748-7.248   h59.122l-18.601-2.895c0.671-5.303,5.513-9.057,10.816-8.385c0,0,13.441,1.465,19.338,3.47c7.902,3.376,8.489,14.449,13.573,14.748   c5.083,0.298,9.005,0.528,9.005,0.528v34.654c0,0-6.646-0.019-11.158-0.019S78.596,81.746,65.47,80.949   c-1.634-0.099-18.247,0.767-18.247,0.767C44.456,82.012,41.916,79.481,41.55,76.062z"/></g></svg>
