<svg xmlns:x="http://ns.adobe.com/Extensibility/1.0/" xmlns:i="http://ns.adobe.com/AdobeIllustrator/10.0/" xmlns:graph="http://ns.adobe.com/Graphs/1.0/" xmlns="http://www.w3.org/2000/svg" xmlns:xlink="http://www.w3.org/1999/xlink" version="1.1" x="0px" y="0px" viewBox="0 0 100 125" style="enable-background:new 0 0 100 100;" xml:space="preserve"><switch><g i:extraneous="self"><path fill="#6621c4" d="M52.563,56.267c0.736-0.15,1.463-0.376,2.161-0.671c0.683-0.289,1.34-0.646,1.953-1.06    c0.605-0.407,1.178-0.88,1.702-1.403c0.52-0.52,0.992-1.092,1.404-1.702c0.415-0.614,0.771-1.271,1.061-1.953    c0.293-0.693,0.519-1.42,0.671-2.161c0.155-0.758,0.233-1.537,0.233-2.316s-0.079-1.559-0.234-2.316    c-0.152-0.741-0.377-1.468-0.671-2.162c-0.289-0.681-0.646-1.338-1.06-1.952c-0.413-0.61-0.885-1.183-1.404-1.702    c-0.524-0.523-1.097-0.996-1.7-1.402c-0.614-0.415-1.271-0.771-1.955-1.061c-0.698-0.295-1.425-0.521-2.161-0.671    c-0.759-0.155-1.538-0.233-2.315-0.233h-20c-0.777,0-1.556,0.078-2.315,0.233c-0.736,0.15-1.463,0.376-2.161,0.671    c-0.683,0.289-1.34,0.646-1.953,1.06c-0.605,0.407-1.178,0.88-1.702,1.403c-0.52,0.52-0.992,1.092-1.404,1.702    c-0.415,0.614-0.771,1.271-1.061,1.953c-0.293,0.693-0.519,1.42-0.671,2.161c-0.155,0.758-0.233,1.537-0.233,2.316    s0.079,1.559,0.234,2.316c0.152,0.741,0.377,1.468,0.671,2.162c0.289,0.681,0.646,1.338,1.06,1.952    c0.413,0.61,0.885,1.183,1.404,1.702c0.524,0.523,1.097,0.996,1.7,1.402c0.614,0.415,1.271,0.771,1.955,1.061    c0.698,0.295,1.425,0.521,2.161,0.671c0.759,0.155,1.538,0.233,2.315,0.233h20C51.025,56.5,51.804,56.422,52.563,56.267z     M28.532,53.327c-0.542-0.11-1.078-0.277-1.593-0.495c-0.504-0.213-0.989-0.477-1.445-0.784c-0.446-0.3-0.869-0.649-1.258-1.038    c-0.384-0.383-0.733-0.807-1.038-1.259c-0.307-0.454-0.571-0.94-0.784-1.443c-0.216-0.51-0.382-1.046-0.494-1.593    c-0.115-0.56-0.173-1.137-0.173-1.715s0.058-1.155,0.172-1.715c0.112-0.547,0.279-1.083,0.494-1.592    c0.214-0.504,0.478-0.99,0.785-1.444c0.305-0.452,0.654-0.876,1.038-1.259c0.389-0.389,0.812-0.738,1.26-1.039    c0.454-0.307,0.939-0.57,1.443-0.783c0.515-0.218,1.051-0.385,1.593-0.495c0.562-0.114,1.139-0.173,1.715-0.173h20    c0.576,0,1.153,0.059,1.715,0.173c0.542,0.11,1.078,0.277,1.593,0.495c0.504,0.213,0.989,0.477,1.445,0.784    c0.446,0.3,0.869,0.649,1.258,1.038c0.384,0.383,0.733,0.807,1.038,1.259c0.307,0.454,0.571,0.94,0.784,1.443    c0.216,0.51,0.382,1.046,0.494,1.593c0.115,0.56,0.173,1.137,0.173,1.715s-0.058,1.155-0.172,1.715    c-0.112,0.547-0.279,1.083-0.494,1.592c-0.214,0.504-0.478,0.99-0.785,1.444c-0.305,0.452-0.654,0.876-1.038,1.259    c-0.389,0.389-0.812,0.738-1.26,1.039c-0.454,0.307-0.939,0.57-1.443,0.783c-0.515,0.218-1.051,0.385-1.593,0.495    c-0.562,0.114-1.139,0.173-1.715,0.173h-20C29.671,53.5,29.094,53.441,28.532,53.327z"/><path fill="#6621c4" d="M81.019,52.684c-0.152-0.741-0.377-1.468-0.671-2.162c-0.289-0.681-0.646-1.338-1.06-1.952    c-0.413-0.61-0.885-1.183-1.404-1.702c-0.524-0.523-1.097-0.996-1.7-1.402c-0.614-0.415-1.271-0.771-1.955-1.061    c-0.698-0.295-1.425-0.521-2.161-0.671c-0.759-0.155-1.538-0.233-2.315-0.233h-5c-0.829,0-1.5,0.672-1.5,1.5s0.671,1.5,1.5,1.5h5    c0.576,0,1.153,0.059,1.715,0.173c0.542,0.11,1.078,0.277,1.593,0.495c0.504,0.213,0.989,0.477,1.445,0.784    c0.446,0.3,0.869,0.649,1.258,1.038c0.384,0.383,0.733,0.807,1.038,1.259c0.307,0.454,0.571,0.94,0.784,1.443    c0.216,0.51,0.382,1.046,0.494,1.593c0.115,0.56,0.173,1.137,0.173,1.715s-0.058,1.155-0.172,1.715    c-0.112,0.547-0.279,1.083-0.494,1.592c-0.214,0.504-0.478,0.99-0.785,1.444c-0.305,0.452-0.654,0.876-1.038,1.259    c-0.389,0.389-0.812,0.738-1.26,1.039c-0.454,0.307-0.939,0.57-1.443,0.783c-0.515,0.218-1.051,0.385-1.593,0.495    c-0.562,0.114-1.139,0.173-1.715,0.173H50.248c-0.576,0-1.153-0.059-1.715-0.173c-0.542-0.11-1.078-0.277-1.593-0.495    c-0.504-0.213-0.989-0.477-1.445-0.784c-0.446-0.3-0.869-0.649-1.258-1.038c-0.384-0.383-0.733-0.807-1.038-1.259    c-0.307-0.454-0.571-0.94-0.785-1.444c-0.323-0.763-1.204-1.119-1.966-0.795c-0.763,0.323-1.119,1.204-0.795,1.967    c0.289,0.681,0.646,1.338,1.06,1.952c0.413,0.61,0.885,1.183,1.404,1.702c0.524,0.523,1.097,0.996,1.7,1.402    c0.614,0.415,1.272,0.771,1.955,1.061c0.698,0.295,1.425,0.521,2.161,0.671c0.759,0.155,1.538,0.233,2.315,0.233h19.505    c0.777,0,1.556-0.078,2.315-0.233c0.736-0.15,1.463-0.376,2.161-0.671c0.683-0.289,1.34-0.646,1.953-1.06    c0.605-0.407,1.178-0.88,1.702-1.403c0.52-0.52,0.992-1.092,1.404-1.702c0.415-0.614,0.771-1.271,1.061-1.953    c0.293-0.693,0.519-1.42,0.671-2.161c0.155-0.758,0.233-1.537,0.233-2.316S81.174,53.441,81.019,52.684z"/><path d="M55.248,46.5c0.829,0,1.5-0.672,1.5-1.5s-0.671-1.5-1.5-1.5h-5c-0.777,0-1.556,0.078-2.315,0.233    c-0.736,0.15-1.463,0.376-2.161,0.671c-0.683,0.289-1.34,0.646-1.953,1.06c-0.605,0.407-1.178,0.88-1.702,1.403    c-0.52,0.52-0.992,1.092-1.404,1.702c-0.415,0.614-0.771,1.271-1.06,1.952c-0.324,0.763,0.033,1.644,0.795,1.967    c0.191,0.081,0.39,0.119,0.585,0.119c0.584,0,1.139-0.343,1.381-0.914c0.214-0.504,0.478-0.99,0.785-1.444    c0.305-0.452,0.654-0.876,1.038-1.259c0.389-0.389,0.812-0.738,1.26-1.039c0.454-0.307,0.939-0.57,1.443-0.783    c0.515-0.218,1.051-0.385,1.593-0.495c0.562-0.114,1.139-0.173,1.715-0.173H55.248z"/></g></switch></svg>
