<?xml version="1.0" encoding="utf-8"?>
<!-- Generator: Adobe Illustrator 25.0.0, SVG Export Plug-In . SVG Version: 6.00 Build 0)  -->
<svg version="1.1" id="Ähnliche_Fragen" xmlns="http://www.w3.org/2000/svg" xmlns:xlink="http://www.w3.org/1999/xlink" x="0px"
	 y="0px" viewBox="0 0 64 64" style="enable-background:new 0 0 64 64;" xml:space="preserve">
<style type="text/css">
	.st0{fill:#6621C4;}
	.st1{fill:#52CFD1;}
	.st2{fill:none;stroke:#52CFD1;stroke-width:0.75;stroke-miterlimit:10;}
	.st3{fill:none;}
	.st4{font-family:'CollegiateHeavyOutline-Medium';}
	.st5{font-size:46.8136px;}
</style>
<g>
	<g>
		<path class="st0" d="M35.47,38.54v4.53h5.74v-4.53H35.47z M35.47,8.21v23.1h5.74V8.21H35.47z M35.47,38.54v4.53h5.74v-4.53H35.47z
			 M35.47,8.21v23.1h5.74V8.21H35.47z M33.2,36.01v9.66h10.35v-9.66H33.2z M42.49,44.48h-8.31v-7.34h8.31V44.48z M41.21,38.54h-5.74
			v4.53h5.74V38.54z M41.21,8.21h-5.74v23.1h5.74V8.21z"/>
		<path class="st0" d="M43.55,5.62v20.53l-0.11-0.03c-0.37-0.09-0.74,0.08-0.95,0.38V6.81h-8.31v25.91h6.83l-0.06,0.26
			c-0.08,0.36,0.07,0.72,0.35,0.92h-8.1V5.62H43.55z"/>
	</g>
	<g>
		<polygon class="st1" points="55.75,31.29 54.99,34.58 50.8,33.61 49.82,37.86 46.53,37.1 47.51,32.85 43.32,31.88 44.08,28.59 
			48.27,29.56 49.23,25.43 52.52,26.19 51.56,30.32 		"/>
		<polygon class="st2" points="47.44,28.26 48.41,24.06 53.92,25.34 52.95,29.53 56.96,30.46 55.71,35.86 51.69,35.01 50.69,39.3 
			45.18,38.02 46.19,33.66 42.09,32.71 43.34,27.31 		"/>
	</g>
</g>
<rect x="8.71" y="28.56" transform="matrix(0.9599 -0.2805 0.2805 0.9599 -11.2253 8.8964)" class="st3" width="33.51" height="30.21"/>
<text transform="matrix(0.9599 -0.2805 0.2805 0.9599 12.9445 60.5514)" class="st1 st4 st5">?</text>
</svg>
