<svg id="Fav" xmlns="http://www.w3.org/2000/svg" viewBox="0 0 41.68 49.12"><defs><style>.cls-1{fill:#6621c4;}.cls-2{fill:#52cfd1;}</style></defs><path class="cls-1" d="M47.7,39.38l-1,9.84-9.57-1,1-9.84Zm-8.78.27-.75,7.48,7.68.78.75-7.48ZM50.84,8.41,47.92,37.23l-9.57-1L41.27,7.44Zm-8.78.33-2.68,26.4,7.68.78,2.68-26.4Zm3.23,33-.48,4.64-5.32-.54L40,41.15Zm3.13-30.89L46,34.35l-5.33-.54,2.39-23.54Z" transform="translate(-9.16 -7.44)"/><path class="cls-2" d="M19.09,41.19l4.77-9.4-.5-1.71-1-.61-2.22.64-.49,1.05.86,2.95-9.32,2.73-2.05-7,3.68-7.28,11.63-3.4,7,4.17,2.64,9-4.18,8.34L31,44.47l-10.11,3Zm2.49,4.93,8.17-2.38-.93-3.19L33,32.21,30.64,24l-6.29-3.72-10.8,3.15L10.25,30l1.63,5.58,7.38-2.16-.7-2.4.89-1.76,3-.89,1.7,1L25,32l-4.76,9.4Zm-.14-4.61L26.2,32.1l-1-3.55L22.61,27l-4,1.16-1.32,2.68.49,1.67L12.64,34,11.5,30.14l2.86-5.64,9.88-2.89,5.44,3.22L31.79,32l-4.22,8.34.72,2.49L22.34,44.6Zm9.83,3.84,2.42,8.26-10.11,3L21.17,48.3ZM22.42,49l1.83,6.27,8.17-2.39L30.59,46.6Zm7.41-.87L31,52,25,53.74l-1.13-3.88Z" transform="translate(-9.16 -7.44)"/></svg>