<?xml version="1.0" encoding="utf-8"?>
<!-- Generator: Adobe Illustrator 25.0.0, SVG Export Plug-In . SVG Version: 6.00 Build 0)  -->
<svg version="1.1" xmlns="http://www.w3.org/2000/svg" xmlns:xlink="http://www.w3.org/1999/xlink" x="0px" y="0px"
	 viewBox="0 0 64 64" style="enable-background:new 0 0 64 64;" xml:space="preserve">
<style type="text/css">
	.st0{display:none;}
	.st1{display:inline;}
	.st2{fill:#6621C4;}
	.st3{fill:#52CFD1;}
	.st4{fill:none;stroke:#52CFD1;stroke-width:0.75;stroke-miterlimit:10;}
	.st5{display:inline;fill:none;}
	.st6{display:inline;fill:#52CFD1;}
	.st7{font-family:'CollegiateHeavyOutline-Medium';}
	.st8{font-size:46.8115px;}
	.st9{fill:none;stroke:#52CFD1;stroke-width:4;stroke-miterlimit:10;}
	.st10{fill:none;}
	.st11{font-size:46.1758px;}
	.st12{fill:none;stroke:#52CFD1;stroke-miterlimit:10;}
	.st13{display:inline;opacity:0;fill:none;stroke:#52CFD1;stroke-width:0.75;stroke-miterlimit:10;}
</style>
<g id="Ähnliche_Fragen" class="st0">
	<g class="st1">
		<g>
			<path class="st2" d="M35.47,38.54v4.53h5.74v-4.53H35.47z M35.47,8.21v23.1h5.74V8.21H35.47z M35.47,38.54v4.53h5.74v-4.53H35.47
				z M35.47,8.21v23.1h5.74V8.21H35.47z M33.2,36.01v9.66h10.35v-9.66H33.2z M42.49,44.48h-8.31v-7.34h8.31V44.48z M41.21,38.54
				h-5.74v4.53h5.74V38.54z M41.21,8.21h-5.74v23.1h5.74V8.21z"/>
			<path class="st2" d="M43.55,5.62v20.53l-0.11-0.03c-0.37-0.09-0.74,0.08-0.95,0.38V6.81h-8.31v25.91h6.83l-0.06,0.26
				c-0.08,0.36,0.07,0.72,0.35,0.92h-8.1V5.62H43.55z"/>
		</g>
		<g>
			<polygon class="st3" points="55.75,31.29 54.99,34.58 50.8,33.61 49.82,37.86 46.53,37.1 47.51,32.85 43.32,31.88 44.08,28.59 
				48.27,29.56 49.23,25.43 52.52,26.19 51.56,30.32 			"/>
			<polygon class="st4" points="47.44,28.26 48.41,24.06 53.92,25.34 52.95,29.53 56.96,30.46 55.71,35.86 51.69,35.01 50.69,39.3 
				45.18,38.02 46.19,33.66 42.09,32.71 43.34,27.31 			"/>
		</g>
	</g>
	
		<rect x="8.71" y="28.56" transform="matrix(0.9599 -0.2805 0.2805 0.9599 -11.2235 8.8945)" class="st5" width="33.51" height="30.21"/>
	<text transform="matrix(0.9599 -0.2805 0.2805 0.9599 12.9453 60.5517)" class="st6 st7 st8">?</text>
</g>
<g id="Verwandte_Fragen">
	<g>
		<g>
			<path class="st9" d="M53.58,28.72"/>
			
				<rect x="9.9" y="26.52" transform="matrix(0.9599 -0.2805 0.2805 0.9599 -11.1428 9.9471)" class="st10" width="38.56" height="34.77"/>
			<text transform="matrix(0.9599 -0.2805 0.2805 0.9599 13.4924 58.9549)" class="st3 st7 st11">?</text>
		</g>
		<g>
			<path class="st2" d="M40.21,38.82l-4.92,0.06l0.05,4.29l4.92-0.06L40.21,38.82z M40.21,38.82l-4.92,0.06l0.05,4.29l4.92-0.06
				L40.21,38.82z M42.18,36.45l-8.84,0.1l0.11,9.09l8.84-0.1L42.18,36.45z M34.27,44.52l-0.08-6.91l7.09-0.08l0.08,6.91L34.27,44.52
				z M35.29,38.88l0.05,4.29l4.92-0.06l-0.05-4.29L35.29,38.88z M40.21,38.82l-4.92,0.06l0.05,4.29l4.92-0.06L40.21,38.82z
				 M40.21,38.82l-4.92,0.06l0.05,4.29l4.92-0.06L40.21,38.82z"/>
			<path class="st2" d="M40.07,26.44h-0.74c-0.42,0-0.76,0.34-0.76,0.76v4.86l-3.36,0.04l-0.25-21.74l4.92-0.06L40.07,26.44z"/>
			<path class="st2" d="M42.15,34.47l-8.84,0.1L33.01,7.95l8.84-0.1l0.22,18.59h-0.9l-0.2-17.46l-7.09,0.08l0.28,24.39l4.43-0.05
				v0.06c0,0.42,0.34,0.76,0.76,0.76h2.82L42.15,34.47z"/>
		</g>
		<g>
			<path class="st3" d="M56.28,30.31c-1.24,1.3-2.48,2.59-3.72,3.89c-0.04-2.47-0.07-4.94-0.11-7.4
				C53.73,27.97,55,29.14,56.28,30.31z"/>
			<g>
				<g>
					<polyline class="st3" points="53.21,31.47 41.56,31.67 41.51,29.09 53.16,28.89 					"/>
					<path class="st12" d="M58.2,30.2c-2.27,2.27-4.53,4.53-6.8,6.8c-0.05-1.39-0.09-2.78-0.14-4.17c-3.73,0.06-7.47,0.12-11.2,0.18
						c-0.03-1.76-0.06-3.53-0.09-5.29c3.76-0.04,7.51-0.07,11.27-0.11c0.02-1.18,0.05-2.37,0.07-3.55c0.86,0.76,1.71,1.52,2.57,2.29
						C55.31,27.64,56.76,28.92,58.2,30.2z"/>
				</g>
			</g>
		</g>
	</g>
</g>
<g id="Rahmen" class="st0">
	<rect class="st13" width="64" height="64"/>
</g>
</svg>
