<svg id="Zeichenfläche_1" data-name="Zeichenfläche 1" xmlns="http://www.w3.org/2000/svg" viewBox="0 0 57.41 60.45"><defs><style>.cls-1{isolation:isolate;}.cls-2{fill:#6d2cc6;}.cls-3{fill:#6724c4;}.cls-4{fill:#6925c4;}.cls-5{fill:#59d0d2;}.cls-6{fill:#53cfd1;}.cls-7{fill:#55cfd1;}</style></defs><g class="cls-1"><path class="cls-2" d="M199,80.77l-14.26-1.93,5-37.48L204,43.27C202.31,55.78,200.64,68.18,199,80.77Zm-8-37.55-4.59,34.14,11.27,1.53,4.6-34.15Z" transform="translate(-146.58 -41.36)"/><path class="cls-2" d="M184.33,81.51l14.25,1.93-1.73,12.88L182.6,94.4Zm1.22,1.79-1.27,9.62,11.26,1.52,1.28-9.6Z" transform="translate(-146.58 -41.36)"/><path class="cls-3" d="M196.21,76.89l-7.9-1.08,4.11-30.58,7.91,1.08C199,56.49,197.6,66.61,196.21,76.89Z" transform="translate(-146.58 -41.36)"/><path class="cls-4" d="M194.94,86.38l-.81,6-7.91-1,.79-6.07Z" transform="translate(-146.58 -41.36)"/><path class="cls-5" d="M159.82,78.22l8.36-13.28-.41-2.56-1.4-1-3.21.61a2.6,2.6,0,0,0-.68,2.77,29.65,29.65,0,0,1,.61,3.23l-14.4,2.79-2.11-10.81,6.53-10.4L171,46.08l9.89,7.21,2.68,13.89L176.2,79l1.1,5.85-15.59,3Zm14.69.36c2.28-3.61,4.48-7.17,6.75-10.68a3,3,0,0,0,.47-2.36c-.74-3.74-1.48-7.48-2.23-11.29l-8.83-6.36-16.5,3.18c-1.48,2.33-2.81,4.65-4.37,6.81a5.55,5.55,0,0,0-1,5.2c.54,1.8.77,3.7,1.16,5.67l11.15-2.15-.6-3.77,1.54-2.41,4.65-.89,2.42,1.73.8,4.06-8.43,13.37L163,85.85l12.45-2.4Z" transform="translate(-146.58 -41.36)"/><path class="cls-5" d="M180,98.78l-15.63,3L161.92,89l15.63-3C178.39,90.34,179.2,94.46,180,98.78Zm-16.21-8.45,1.82,9.5,12.5-2.43-1.85-9.47Z" transform="translate(-146.58 -41.36)"/><path class="cls-6" d="M172.68,78.18,173.4,82l-9.15,1.78c-.27-1.5-.56-3-.77-4.45a1.89,1.89,0,0,1,.36-1.09q3.66-5.83,7.35-11.62a2.41,2.41,0,0,0,.37-2c-.35-1.42-.59-2.87-.88-4.33l-3.59-2.65L161,58.79,158.7,62.6l.48,2.55-7.94,1.5L150,60.76l5.09-8,15.2-3L178,55.33l2.14,11Z" transform="translate(-146.58 -41.36)"/><path class="cls-7" d="M176.13,96,167,97.75l-1.14-6L175,90Z" transform="translate(-146.58 -41.36)"/></g></svg>