<svg id="Zeichenfläche_1" data-name="Zeichenfläche 1" xmlns="http://www.w3.org/2000/svg" viewBox="0 0 134.57 110.92"><defs><style>.cls-1{isolation:isolate;}.cls-2{fill:#6f2fc7;}.cls-3{fill:#6e2ec7;}.cls-4{fill:#6e2dc6;}.cls-5{fill:#6722c4;}.cls-6{fill:#6622c3;}.cls-7{fill:#6d2cc6;}.cls-8{fill:#ede5f7;}.cls-9{fill:#60d2d4;}.cls-10{fill:#5dd1d3;}.cls-11{fill:#5fd2d4;}.cls-12{fill:#53cfd1;}.cls-13{fill:#52ced0;}.cls-14{fill:#54cfd1;}.cls-15{fill:#5ad1d3;}.cls-16{fill:#59d0d2;}</style></defs><g class="cls-1"><path class="cls-2" d="M51.3,92.23H39v-2H31.57v7.1h.7l.09-2H44.63v17.07H32.37l-.11-1.89-.68,0v7.16h5.56v13H13.82V117.63h2.77V90.2H13.85v-13H51.3Zm-33-3.79v30.82H15.44v9.68H35.56v-9.7H29.92c0-3.56,0-7,0-10.44h3.91l.11,1.92h9V97H34l-.12,2H30V88.53h10.7v2h9V78.91H15.41v9.53Z" transform="translate(-10.45 -19.67)"/><path class="cls-3" d="M75.12,117.66l1.32-.13-.24-1h-9l-.36,1,1.32.17v12.87H47.28V117.66h3.11l9.09-27.45-1.93-.13V77.2H86.17V90.06l-2.29.15c3,9.15,6.05,18.22,9.09,27.36h3.1v13H75.12Zm16.62,1.59L81.54,88.46h2.93V78.89H59.23v9.59h2.56C58.4,98.81,55,109,51.67,119.29H48.93v9.64H66.48v-9.65l-2-.09L66,114.75H77.31l1.57,4.44-2.09.11v9.63H94.4v-9.68Z" transform="translate(-10.45 -19.67)"/><path class="cls-4" d="M139.5,86.08V114.8l5.52,5.79-8.55,8.84a16.05,16.05,0,0,1-1.17-1.16,15.45,15.45,0,0,1-.89-1.28c-1.41,1.34-2.53,2.42-3.79,3.61H108.26l-8.62-8.88V86.05l8.61-8.9h22.58Zm-38.18,35,7.75,7.91H130l4.43-4.35,1.78,2,6.56-6-4.93-5.11V86.73l-7.72-7.89H109l-7.7,7.86Z" transform="translate(-10.45 -19.67)"/><path class="cls-5" d="M48,88.71H42.34l-.1-2h-14v14.12h7.3v-2h5.7v10H35.65L35.56,107H28.25v14h5.61V127H17.09v-6h2.84V86.6H17v-6H48Z" transform="translate(-10.45 -19.67)"/><path class="cls-5" d="M62,121.06h2.67v6H50.75V121.1l2.18-.13c3.75-11.41,7.5-22.8,11.29-34.32H61.1v-6H82.77v5.94H79.15C83,98.14,86.72,109.52,90.49,121l2.11.12V127h-14v-6h2.8l-2.62-8H64.65Zm4.08-12.47H77.23C75.39,103,73.58,97.48,71.77,92h-.22Z" transform="translate(-10.45 -19.67)"/><path class="cls-6" d="M109.65,127.07l-6.58-6.81V87.44c2.19-2.27,4.42-4.56,6.64-6.85h19.72l6.72,6.89v28.71l4.08,4.37-3.8,4-2.05-2.32-5.21,4.83Zm18.06-11.64L120.54,108l4-4.22,3.16,3.53V90l-3.18-3.34h-9.57l-3.47,3.16v27.89l3.21,3.31h9.95l3.08-3.28Z" transform="translate(-10.45 -19.67)"/><path class="cls-7" d="M74.78,106.83H68.61c.87-3.17,2-6.16,3-9.43Zm-2.23-1.62-.81-2.46-.22,0-.7,2.48Z" transform="translate(-10.45 -19.67)"/><path class="cls-7" d="M115.25,119.2l-2.06-1.94V90.61l2.35-2.11h8.22l2,1.93v12.65l-1.59-1.49L118,108c2.62,2.75,5.2,5.45,7.77,8.16v1.1l-1.9,2Zm9-20.06v-8l-1.17-1h-7.17l-1.06,1.24v24.89l1.09,1.25h7.4l.84-.76L115.71,108Z" transform="translate(-10.45 -19.67)"/><path class="cls-8" d="M72.55,105.21H70.82l.7-2.48.22,0Z" transform="translate(-10.45 -19.67)"/><path class="cls-9" d="M53.06,73.25v-13h2.88V32.79H53.26c-.36-.91-.44-11.61-.12-13H90.68V34.85H78.39l-.11-2H70.92v7.09h.64l.1-2H84V55H71.69l-.17-2c-.33.32-.65.48-.65.64,0,2.15,0,4.3,0,6.53h7.42l.12-1.95H90.67V73.25Zm1.78-11.44v9.61H89V60H80l-.12,1.77H69.29V51.37h3.89l.12,2h9V39.62h-9l-.1,2H69.31V31.2H79.93l.11,2h9V21.55H54.83v9.6H57.6V61.81Z" transform="translate(-10.45 -19.67)"/><path class="cls-10" d="M134.91,42.3l-3,3.3,3.1,3.21V60.16h3V73.24h-18V53.38l-1.17-1.17h-6.33c0,2.62,0,5.22,0,7.95h3V73.24H94.24v-13H97V32.78H94.23V19.71h32l8.7,8.92ZM121.49,71.4h14.82V61.81h-3V49.56l-4-4.15,3.94-3.52V29.18l-7.94-7.64H95.89v9.59h2.77V61.89H95.92v9.52h17.84V61.78h-3V50.59h8.64l2,2Z" transform="translate(-10.45 -19.67)"/><path class="cls-11" d="M10.45,28.63l8.57-9H41L49.5,28.6V64.37L41,73.29H19l-8.54-9Zm37.39,35V29.29l-7.43-7.77H19.58l-7.49,7.84V63.62l7.46,7.8H40.46Z" transform="translate(-10.45 -19.67)"/><path class="cls-12" d="M75,51.42l-.09-1.77H67.6V63.48H81.42l.13-1.8h5.8v8h-31v-6l2.9-.13V29.23H56.33V23.29h31v8H81.55l-.11-2H67.61v14h7.25l.15-2h5.6V51.42Z" transform="translate(-10.45 -19.67)"/><path class="cls-13" d="M97.63,23.23h27.22l6.7,6.88v11l-4.7,4.28,4.74,4.88V63.68h2.84v6H123.22V52.05l-3.32-3.33H109.11v15h2.76v6H97.62V63.74h2.94V29.26H97.63Zm22.43,6.08H109.12V42.58h10.6l3.43-3.2V32.57Z" transform="translate(-10.45 -19.67)"/><path class="cls-14" d="M13.8,30.05l6.48-6.83H39.67l6.64,6.9V62.79l-6.64,6.95H20.3l-6.5-6.85ZM22,32.61V60.35c.9,1,1.74,1.93,2.64,2.83a1.67,1.67,0,0,0,1,.5c3,0,6.07,0,8.72,0L38,60.43V32.57l-3.1-3.32H25.11Z" transform="translate(-10.45 -19.67)"/><path class="cls-15" d="M121.43,38.61l-2.3,2.09h-8.31V31.19h8.46l2.15,2.17Zm-1.62-.73v-3.7l-1.18-1.34h-6.16V39h6.09Z" transform="translate(-10.45 -19.67)"/><path class="cls-16" d="M34.32,31.17l1.91,2.12V59.73L34.09,61.8H25.83l-2-1.8V33.13l2.13-2Zm-7.86,29h7l1.1-1V34.06L33.52,32.8H26.44l-1.1,1.28V58.93Z" transform="translate(-10.45 -19.67)"/></g></svg>