<?xml version="1.0" standalone="no"?>
<!DOCTYPE svg PUBLIC "-//W3C//DTD SVG 20010904//EN"
 "http://www.w3.org/TR/2001/REC-SVG-20010904/DTD/svg10.dtd">
<svg version="1.0" xmlns="http://www.w3.org/2000/svg"
 width="784.000000pt" height="784.000000pt" viewBox="0 0 784.000000 784.000000"
 preserveAspectRatio="xMidYMid meet">
<metadata>
Created by potrace 1.14, written by Peter Selinger 2001-2017
</metadata>
<g transform="translate(0.000000,784.000000) scale(0.100000,-0.100000)"
fill="#000000" stroke="none">
<path d="M5726 7832 c-2 -4 -7 -36 -10 -72 -4 -36 -9 -81 -11 -100 -3 -19 -7
-62 -10 -95 -7 -82 -14 -141 -19 -184 -3 -20 -8 -67 -11 -106 -6 -70 -12 -128
-20 -195 -2 -19 -7 -64 -10 -100 -3 -36 -8 -83 -10 -105 -2 -22 -7 -67 -10
-100 -7 -75 -14 -140 -20 -185 -2 -19 -7 -66 -10 -105 -3 -38 -7 -86 -10 -105
-2 -19 -7 -62 -10 -95 -3 -33 -7 -78 -10 -100 -6 -51 -20 -198 -30 -300 -12
-125 -14 -140 -19 -184 -7 -62 -15 -134 -21 -201 -2 -30 -7 -77 -10 -105 -3
-27 -8 -75 -10 -105 -2 -30 -5 -55 -6 -55 -1 0 -5 -36 -13 -130 -4 -38 -8 -83
-10 -100 -2 -16 -7 -64 -10 -105 -4 -41 -9 -86 -11 -100 -2 -14 -6 -56 -10
-95 -3 -38 -8 -86 -10 -105 -10 -81 -16 -138 -20 -180 -12 -145 -17 -188 -20
-210 -3 -26 -14 -133 -21 -207 -2 -24 -6 -62 -9 -85 -2 -24 -7 -65 -9 -93 -3
-27 -8 -72 -11 -100 -3 -27 -8 -77 -11 -110 -3 -33 -7 -76 -10 -95 -2 -19 -6
-57 -8 -85 -2 -27 -7 -80 -11 -116 -3 -37 -2 -69 2 -72 5 -3 41 -8 79 -12 38
-3 78 -7 89 -9 11 -2 58 -7 105 -11 47 -4 96 -9 110 -11 14 -1 50 -5 80 -8 30
-3 98 -10 150 -16 52 -5 115 -12 140 -14 25 -3 65 -7 90 -10 25 -3 72 -8 105
-11 33 -4 74 -8 90 -10 17 -2 57 -7 90 -10 33 -3 74 -7 90 -9 17 -2 64 -7 105
-10 41 -4 101 -11 133 -15 65 -9 63 -11 71 84 2 28 5 50 6 50 0 0 3 25 5 55 4
53 6 76 20 200 3 30 7 78 10 105 2 28 7 73 10 100 12 106 14 132 20 200 3 39
8 81 10 95 3 14 7 61 10 105 4 44 8 87 10 95 2 8 7 51 10 95 4 44 8 96 11 115
2 19 6 60 9 90 3 30 7 75 10 100 2 25 7 72 10 105 4 33 8 71 10 85 2 14 7 59
10 100 3 41 8 86 10 100 2 14 7 58 10 97 3 40 8 80 9 90 2 10 7 54 11 98 4 44
8 91 10 105 1 14 6 63 10 110 4 47 9 94 11 105 2 11 6 47 9 80 3 33 7 78 9
100 13 127 19 183 21 205 2 14 6 57 10 95 15 162 24 249 31 300 2 17 6 59 9
95 3 36 8 85 11 110 3 25 7 63 9 85 9 97 15 162 19 190 2 17 7 62 10 100 4 39
9 86 11 105 5 41 13 122 20 202 7 71 12 117 20 188 4 30 8 81 10 112 2 31 5
61 7 65 11 22 8 80 -4 80 -15 1 -115 11 -172 17 -38 4 -120 13 -201 21 -22 2
-69 7 -105 10 -36 3 -83 8 -105 10 -92 10 -143 16 -195 20 -30 3 -75 8 -100
11 -104 12 -128 14 -185 19 -33 2 -76 6 -95 9 -19 3 -66 8 -105 11 -38 4 -83
8 -100 11 -79 10 -144 13 -149 6z m294 -217 c19 -2 62 -6 95 -10 56 -5 82 -8
195 -19 25 -3 74 -8 110 -11 36 -3 79 -8 95 -10 17 -2 66 -7 110 -10 44 -4 89
-9 100 -11 11 -3 48 -6 83 -9 35 -2 87 -7 115 -11 60 -7 104 -12 131 -13 20
-1 20 11 1 -191 -2 -19 -6 -62 -10 -95 -4 -33 -8 -76 -10 -95 -2 -19 -6 -69
-10 -110 -3 -41 -8 -88 -10 -105 -9 -66 -18 -161 -29 -280 -3 -27 -7 -75 -11
-105 -3 -30 -8 -77 -11 -105 -2 -27 -6 -68 -9 -90 -2 -22 -7 -70 -10 -105 -3
-36 -7 -81 -10 -100 -3 -19 -7 -62 -10 -95 -3 -33 -7 -76 -10 -95 -2 -19 -6
-62 -10 -95 -3 -33 -8 -81 -11 -108 -3 -26 -7 -69 -9 -95 -2 -26 -4 -47 -5
-47 0 0 -3 -22 -5 -50 -6 -71 -15 -164 -20 -205 -3 -19 -7 -60 -10 -90 -6 -68
-12 -129 -20 -195 -11 -105 -15 -142 -20 -200 -2 -33 -7 -73 -9 -90 -3 -27 -9
-80 -21 -210 -4 -37 -9 -86 -20 -195 -12 -118 -17 -167 -20 -195 -4 -42 -16
-165 -20 -195 -1 -14 -6 -56 -9 -95 -4 -38 -9 -90 -12 -115 -3 -25 -7 -65 -9
-90 -2 -25 -7 -72 -10 -105 -4 -33 -8 -73 -10 -90 -1 -16 -6 -61 -10 -100 -4
-38 -9 -73 -11 -76 -2 -3 -29 -2 -61 2 -51 6 -140 15 -238 24 -44 4 -144 15
-190 20 -22 3 -65 7 -95 10 -75 6 -157 14 -205 20 -22 2 -67 7 -100 10 -33 4
-78 8 -100 10 -22 2 -71 7 -110 11 -38 3 -76 8 -85 9 -8 2 -21 4 -28 4 -9 1
-11 12 -8 39 6 37 10 76 22 202 3 36 8 76 9 90 2 14 6 57 10 95 4 39 8 86 10
105 2 19 7 64 10 100 3 36 8 76 10 90 2 14 7 59 10 100 9 100 13 135 20 200 3
30 8 73 10 95 2 22 4 40 5 40 1 0 3 23 5 50 2 28 6 73 9 100 3 28 8 82 12 120
3 39 8 77 9 86 2 9 6 52 10 95 3 43 8 95 11 115 5 43 10 88 19 187 4 41 8 81
10 90 1 9 6 53 9 97 4 44 9 94 11 110 5 33 15 126 21 195 2 25 6 68 9 95 3 28
7 75 10 105 3 30 7 71 10 90 3 19 8 64 11 100 11 137 13 165 14 165 2 0 9 61
15 125 3 36 7 81 9 100 7 54 17 149 22 210 2 30 6 71 9 90 2 19 7 67 11 105 3
39 7 86 10 105 4 37 10 95 19 195 6 58 8 79 21 195 3 30 7 69 9 85 1 17 3 34
4 39 1 7 58 4 171 -9z"/>
<path d="M6009 7373 c0 -10 -2 -27 -4 -38 -3 -11 -7 -45 -10 -75 -10 -99 -14
-144 -20 -201 -4 -31 -8 -78 -10 -104 -3 -26 -7 -69 -10 -96 -3 -26 -8 -73
-10 -105 -3 -33 -7 -70 -9 -84 -3 -14 -7 -59 -11 -100 -3 -41 -8 -91 -10 -110
-2 -19 -7 -63 -10 -97 -3 -34 -7 -70 -9 -80 -2 -10 -7 -56 -10 -103 -4 -47 -9
-96 -11 -110 -2 -14 -7 -58 -10 -98 -4 -41 -8 -81 -10 -90 -1 -9 -6 -53 -10
-97 -8 -87 -9 -94 -20 -205 -4 -41 -9 -86 -10 -100 -1 -14 -6 -59 -10 -100 -4
-41 -9 -86 -10 -100 -7 -75 -17 -159 -20 -190 -3 -19 -7 -62 -10 -95 -2 -33
-7 -78 -9 -100 -3 -22 -8 -67 -11 -100 -2 -33 -7 -81 -10 -107 -5 -52 -12
-118 -20 -188 -2 -25 -7 -67 -10 -95 -2 -27 -7 -77 -10 -110 -3 -33 -8 -80
-10 -105 -5 -43 -8 -67 -20 -190 -12 -122 -17 -167 -21 -200 -16 -144 -16
-170 3 -171 19 -1 29 -2 128 -13 33 -3 83 -8 110 -11 28 -3 70 -7 95 -10 25
-3 72 -7 105 -10 33 -3 76 -8 96 -10 20 -3 56 -7 80 -9 159 -14 205 -19 212
-23 4 -2 7 8 8 24 0 15 2 35 3 43 2 8 6 49 10 90 3 41 8 86 10 100 3 14 7 57
10 95 4 39 8 88 11 110 2 22 7 65 10 95 12 136 16 167 21 200 3 19 7 58 9 85
5 70 14 154 19 195 3 19 8 62 11 95 7 76 15 159 21 210 3 22 7 65 9 95 3 30 7
73 9 95 3 22 8 65 11 95 3 30 8 71 10 90 2 19 7 64 10 100 3 36 8 81 10 100 2
19 6 58 9 85 14 132 16 154 22 205 3 30 7 78 9 105 2 28 6 64 9 80 3 17 7 62
11 100 3 39 8 88 10 110 11 99 16 143 20 189 3 28 7 73 10 100 8 74 14 134 20
191 3 28 7 71 10 98 10 94 15 143 20 207 4 36 8 76 11 90 2 14 7 61 10 105 3
44 9 99 13 122 10 49 9 49 -84 58 -33 3 -76 8 -95 11 -19 3 -60 7 -90 9 -30 3
-71 7 -90 10 -83 11 -197 23 -275 30 -50 4 -93 9 -172 20 -37 5 -43 4 -44 -12z"/>
<path d="M2900 5929 c-212 -63 -234 -70 -257 -75 -12 -2 -35 -9 -50 -15 -16
-6 -35 -12 -43 -14 -15 -3 -274 -79 -400 -117 -36 -10 -72 -21 -80 -23 -22 -5
-289 -83 -550 -160 -124 -37 -251 -74 -282 -82 -35 -9 -58 -21 -58 -29 0 -8
-4 -14 -10 -14 -5 0 -10 -9 -10 -20 0 -11 -4 -20 -10 -20 -5 0 -10 -9 -10 -19
0 -11 -3 -21 -7 -23 -5 -1 -59 -106 -122 -233 -63 -126 -118 -231 -123 -233
-4 -2 -8 -9 -8 -16 0 -6 -18 -47 -41 -91 -84 -164 -163 -320 -164 -325 -1 -3
-18 -38 -38 -78 -35 -67 -39 -93 -24 -132 3 -8 20 -67 37 -130 17 -63 36 -126
42 -140 5 -14 12 -34 14 -45 2 -11 18 -65 34 -120 17 -55 33 -108 35 -118 7
-29 11 -45 46 -157 18 -58 34 -109 35 -115 4 -20 26 -101 39 -140 7 -22 16
-53 19 -68 6 -26 10 -28 34 -22 15 4 32 8 37 10 6 1 17 5 25 8 8 3 78 24 155
46 77 22 181 52 230 66 50 15 97 29 105 31 8 2 60 17 115 33 55 17 150 44 210
61 61 17 117 34 125 37 8 3 21 7 28 9 6 1 49 14 95 28 85 26 191 56 211 61 6
1 22 7 36 12 14 6 40 14 58 18 17 3 32 8 32 10 0 1 -9 34 -20 71 -26 89 -42
143 -83 283 l-34 115 29 60 c50 108 49 107 111 126 31 10 57 16 57 14 0 -1 16
4 35 12 19 8 37 14 40 13 3 0 31 7 63 16 90 27 96 27 148 -3 117 -66 107 -53
147 -196 21 -72 38 -135 38 -141 -1 -10 -302 -616 -311 -625 -3 -3 -82 -158
-177 -345 -94 -187 -194 -383 -221 -436 -48 -95 -48 -97 -36 -140 7 -24 22
-75 33 -114 11 -38 32 -110 46 -160 15 -49 33 -112 41 -140 8 -27 30 -106 50
-175 42 -144 80 -279 94 -332 12 -42 3 -41 130 -3 47 15 92 28 100 30 8 3 69
21 135 40 66 20 128 38 138 40 9 2 21 6 25 9 5 3 19 7 33 10 13 3 105 29 204
59 99 29 200 60 225 67 25 8 47 14 50 15 3 0 37 11 75 22 110 34 339 104 350
107 6 1 43 11 83 21 l73 20 -7 30 c-3 16 -33 125 -66 240 -33 116 -68 240 -78
277 l-18 67 333 663 332 663 -39 135 c-21 74 -41 144 -43 155 -3 11 -9 31 -15
45 -5 14 -16 50 -24 80 -8 30 -27 96 -41 145 -15 50 -28 95 -29 100 -1 6 -4
15 -8 20 -3 6 -9 26 -14 45 -10 46 -6 31 -64 225 -28 94 -52 175 -54 180 -1 6
-9 30 -16 55 -7 25 -14 50 -16 55 -1 6 -10 37 -20 70 -10 33 -19 65 -20 70
-11 50 -29 66 -171 150 -217 129 -267 159 -273 165 -3 3 -25 16 -50 29 -25 13
-64 37 -88 53 -24 15 -45 28 -47 28 -2 0 -105 61 -229 135 -123 74 -228 135
-231 135 -4 0 -13 7 -21 15 -19 19 -4 21 -164 -26z m160 -161 c19 -11 55 -32
80 -46 25 -13 61 -34 80 -47 73 -46 141 -85 150 -85 6 0 10 -4 10 -10 0 -5 4
-10 9 -10 5 0 101 -55 213 -121 190 -114 228 -136 289 -171 13 -7 26 -15 29
-18 3 -3 21 -14 41 -24 61 -32 67 -40 94 -136 14 -52 28 -99 29 -105 2 -5 6
-17 9 -25 5 -13 102 -353 111 -390 2 -8 23 -80 46 -160 23 -80 44 -152 45
-160 8 -34 64 -217 75 -245 6 -16 10 -30 9 -30 -1 0 3 -23 10 -51 l12 -51
-332 -664 -331 -663 31 -110 c31 -107 56 -195 66 -226 20 -67 45 -173 42 -176
-2 -3 -13 -6 -23 -8 -11 -2 -89 -25 -174 -51 -85 -25 -162 -47 -170 -49 -8 -1
-22 -5 -30 -8 -8 -3 -87 -27 -175 -52 -88 -25 -283 -82 -434 -126 -151 -44
-277 -80 -282 -80 -7 0 -16 20 -24 57 -2 10 -16 59 -30 108 -15 50 -29 97 -30
105 -2 8 -34 119 -71 247 l-66 231 107 214 c59 117 194 384 300 593 337 664
354 698 349 707 -3 4 -7 16 -9 25 -2 10 -15 52 -30 93 -14 41 -27 80 -29 85
-1 6 -11 37 -21 70 -10 33 -20 65 -21 70 -7 35 -27 66 -51 81 -15 10 -47 29
-70 43 -58 37 -103 61 -107 58 -2 -1 -13 6 -23 15 -11 10 -30 19 -44 20 -13 1
-103 -22 -199 -51 -96 -30 -179 -54 -185 -55 -5 -1 -14 -4 -20 -8 -5 -3 -24
-9 -42 -12 -29 -7 -37 -18 -84 -114 -29 -59 -57 -110 -63 -114 -6 -4 -8 -8 -3
-8 4 0 0 -11 -9 -25 -14 -22 -14 -29 2 -82 10 -32 19 -62 19 -68 1 -10 44
-154 66 -223 11 -35 9 -42 -13 -46 -22 -4 -102 -27 -118 -33 -8 -3 -19 -7 -25
-9 -68 -20 -126 -37 -150 -44 -31 -8 -266 -76 -470 -137 -157 -46 -217 -63
-235 -68 -8 -2 -15 -4 -15 -5 0 -1 -7 -3 -15 -5 -8 -2 -40 -11 -70 -19 -30 -8
-55 -14 -56 -13 -1 1 -19 58 -39 127 -20 69 -43 148 -51 175 -8 28 -19 66 -24
85 -5 19 -27 96 -50 170 -22 74 -43 144 -45 156 -3 11 -14 49 -25 84 -26 82
-26 90 12 163 18 34 32 64 33 67 1 3 23 48 49 100 27 52 129 256 228 452 l179
357 42 12 c23 6 94 26 157 45 63 19 126 37 139 40 14 3 28 7 33 10 4 3 16 7
25 9 10 2 97 27 193 55 96 28 200 58 230 66 30 8 66 18 80 23 14 5 50 16 80
25 70 19 205 58 297 86 40 12 74 20 75 19 2 -1 12 3 24 9 11 6 32 13 45 16 30
7 77 20 149 41 124 37 145 43 150 44 3 1 21 -9 40 -21z"/>
<path d="M2975 5570 c-22 -9 -118 -38 -150 -45 -11 -2 -81 -22 -155 -45 -74
-22 -160 -47 -190 -56 -30 -9 -71 -21 -90 -27 -19 -6 -39 -12 -45 -13 -5 -1
-43 -12 -84 -24 -41 -12 -81 -23 -90 -25 -9 -2 -108 -32 -221 -66 -113 -33
-214 -63 -225 -65 -12 -2 -46 -12 -78 -23 -31 -11 -57 -18 -57 -15 0 2 -13 -2
-30 -11 -16 -8 -31 -14 -32 -13 -2 1 -25 -4 -52 -12 -31 -9 -50 -20 -54 -32
-2 -10 -9 -18 -15 -18 -6 0 -8 -2 -5 -5 3 -3 -19 -52 -48 -108 -30 -56 -54
-107 -54 -113 0 -7 -3 -14 -7 -16 -5 -1 -32 -52 -62 -113 -30 -60 -59 -113
-64 -116 -5 -3 -8 -9 -7 -13 3 -10 -63 -140 -72 -144 -5 -2 -8 -9 -8 -17 0
-12 -65 -142 -96 -192 -10 -16 -11 -29 -4 -48 5 -14 12 -36 14 -48 3 -12 28
-98 56 -192 28 -93 53 -177 55 -185 1 -8 12 -44 24 -79 12 -35 21 -70 21 -78
0 -16 -9 -17 82 11 43 13 78 22 78 20 0 -3 8 0 18 5 10 5 52 19 93 30 41 11
146 41 234 66 88 26 167 49 175 51 8 2 43 12 78 21 l63 18 -6 33 c-3 17 -17
66 -30 107 -41 132 -44 114 46 301 45 93 87 172 93 176 6 4 7 8 3 8 -5 0 2 18
14 40 12 22 25 38 27 35 3 -3 11 0 19 6 7 6 13 8 13 5 0 -4 8 -2 18 3 11 6 30
12 43 15 22 5 46 11 182 52 28 8 59 17 67 19 8 2 15 4 15 5 0 1 7 3 15 5 8 1
65 17 125 35 61 18 117 32 125 32 23 -1 403 -229 417 -249 6 -10 25 -72 43
-138 17 -66 34 -127 37 -135 3 -8 7 -19 9 -25 1 -5 10 -37 19 -70 9 -33 25
-90 35 -127 l18 -68 -30 -57 c-17 -32 -112 -220 -211 -418 -100 -198 -186
-363 -192 -367 -5 -4 -6 -8 -2 -8 4 0 -5 -24 -21 -52 -16 -29 -91 -176 -166
-326 -154 -306 -144 -264 -95 -414 11 -35 22 -72 25 -83 2 -11 12 -47 22 -80
11 -33 27 -88 37 -123 19 -66 21 -67 57 -53 25 10 124 40 148 45 8 2 22 6 30
9 8 3 71 22 140 42 69 20 152 45 185 55 33 10 87 25 120 35 33 10 85 25 115
35 30 10 69 21 85 26 17 4 33 8 38 9 4 2 10 3 15 4 36 7 32 31 -47 289 -5 17
-7 32 -4 32 3 0 0 7 -7 15 -7 8 -10 15 -7 15 3 0 1 13 -4 29 -12 34 -36 -16
422 887 139 275 237 479 234 490 -2 10 -15 57 -30 104 -14 47 -28 93 -30 103
-2 10 -15 55 -29 100 -32 104 -69 233 -107 367 -17 58 -33 112 -36 120 -8 19
-11 29 -17 60 -3 14 -10 36 -15 50 -5 14 -14 43 -20 65 -43 158 -43 157 -117
202 -38 24 -76 46 -84 50 -47 24 -135 78 -138 85 -2 4 -8 8 -13 8 -5 0 -54 27
-109 60 -55 33 -104 60 -110 60 -5 0 -10 4 -10 9 0 5 -8 11 -17 15 -10 3 -34
15 -53 27 -274 166 -266 162 -295 149z"/>
<path d="M5219 2872 c-1 -15 -3 -36 -4 -47 -3 -25 -15 -138 -20 -190 -2 -22
-7 -65 -10 -97 -4 -31 -8 -74 -10 -95 -4 -44 -14 -142 -20 -193 -2 -19 -7 -66
-10 -105 -3 -38 -8 -86 -10 -105 -6 -46 -14 -129 -30 -300 -4 -36 -8 -76 -10
-90 -2 -14 -7 -55 -10 -93 -5 -62 -10 -109 -20 -194 -4 -28 -1 -33 18 -34 12
-1 31 -3 42 -4 11 -1 54 -6 95 -10 41 -4 89 -9 105 -11 43 -6 122 -14 180 -19
58 -5 133 -13 190 -20 22 -2 87 -9 145 -15 58 -6 119 -12 135 -14 34 -4 154
-17 200 -21 26 -3 94 -10 185 -20 37 -4 171 -17 203 -20 19 -2 27 2 28 14 1 9
2 27 4 41 2 14 6 57 9 95 4 39 9 81 11 95 2 14 7 59 11 100 4 41 8 86 9 100 2
14 6 58 10 99 3 41 8 88 10 105 3 17 7 60 11 96 3 36 8 81 10 100 3 19 6 55 8
80 2 25 7 74 11 110 3 36 8 83 11 105 11 115 16 162 19 185 1 14 6 57 9 95 4
39 9 87 12 108 3 20 1 37 -3 38 -4 0 -15 2 -23 4 -9 1 -47 6 -85 9 -91 9 -141
14 -190 20 -22 3 -71 8 -110 12 -38 3 -83 8 -100 10 -16 2 -60 6 -96 9 -36 3
-75 7 -86 9 -11 3 -56 7 -99 11 -43 4 -100 11 -126 15 -26 4 -61 6 -77 6 -17
-1 -31 1 -31 4 0 3 -15 5 -32 5 -28 1 -82 6 -208 20 -40 5 -140 15 -202 20
-57 5 -58 4 -59 -23z m266 -186 c33 -4 76 -9 95 -11 19 -2 64 -7 100 -10 36
-3 81 -8 100 -10 35 -4 133 -14 200 -20 64 -5 164 -16 200 -20 19 -2 62 -7 96
-10 33 -3 71 -7 85 -10 23 -3 169 -17 197 -18 10 0 12 -16 8 -66 -3 -36 -5
-66 -6 -66 -1 0 -3 -20 -5 -45 -1 -25 -6 -76 -10 -115 -4 -38 -9 -83 -10 -100
-4 -38 -15 -149 -20 -195 -2 -19 -6 -62 -9 -95 -3 -33 -8 -76 -11 -95 -5 -37
-13 -121 -20 -204 -3 -28 -8 -78 -11 -111 -3 -33 -6 -69 -7 -80 -2 -22 0 -21
-117 -11 -150 13 -177 16 -215 20 -22 3 -71 8 -110 12 -75 7 -120 12 -120 14
0 0 -25 2 -55 4 -57 4 -154 13 -225 22 -22 3 -60 7 -85 9 -25 2 -65 6 -90 9
-25 3 -72 8 -105 12 -33 4 -70 6 -83 5 -22 -2 -23 -1 -17 61 3 35 7 83 10 108
2 25 6 65 9 90 3 25 8 72 11 105 3 33 8 80 11 105 2 25 7 70 9 100 5 55 13
125 20 190 2 19 7 67 10 105 3 39 8 81 10 95 2 14 6 59 10 100 3 41 8 84 10
95 2 11 4 25 4 31 1 12 28 12 136 0z"/>
<path d="M5519 2447 c0 -7 -2 -22 -5 -34 -2 -11 -6 -50 -9 -85 -3 -34 -7 -79
-9 -98 -10 -94 -17 -158 -22 -190 -3 -19 -7 -60 -10 -90 -5 -56 -8 -86 -19
-176 -4 -33 -3 -54 4 -58 11 -7 41 -11 148 -20 29 -3 76 -8 105 -11 29 -3 78
-8 108 -11 30 -3 71 -7 90 -9 19 -3 67 -7 105 -11 39 -3 84 -8 100 -10 17 -3
59 -7 95 -10 35 -3 68 -8 72 -10 14 -9 19 15 34 171 8 88 10 106 19 183 7 65
13 130 19 192 2 19 7 66 11 105 4 38 9 73 11 77 7 11 -7 15 -76 22 -36 4 -78
9 -95 11 -16 2 -55 7 -85 10 -52 5 -70 7 -180 20 -25 4 -52 6 -60 7 -14 0
-121 12 -225 24 -102 12 -125 12 -126 1z"/>
<path d="M4040 1765 c-120 -37 -254 -76 -270 -80 -8 -2 -15 -4 -15 -5 0 -1 -7
-3 -15 -5 -8 -2 -109 -31 -225 -65 -115 -34 -217 -63 -225 -65 -8 -2 -76 -22
-150 -44 -313 -92 -386 -113 -400 -116 -8 -2 -35 -10 -60 -18 -25 -8 -71 -22
-102 -31 -32 -9 -58 -19 -58 -23 0 -4 16 -63 36 -132 20 -69 37 -130 39 -136
1 -5 5 -17 8 -25 3 -8 13 -40 21 -70 19 -76 146 -512 153 -530 3 -8 8 -24 10
-35 2 -11 8 -31 13 -45 5 -14 11 -34 13 -45 2 -11 6 -27 9 -35 9 -23 46 -150
60 -204 7 -27 19 -51 26 -54 7 -2 32 1 55 8 23 8 44 14 47 15 56 15 154 44
355 105 138 41 743 221 865 256 47 14 121 36 165 50 44 14 87 27 95 29 15 2
17 21 7 65 -5 21 -137 469 -263 895 -35 117 -60 204 -68 235 -2 8 -9 26 -14
40 -5 14 -10 28 -11 33 -3 26 -14 57 -20 56 -3 -1 -40 -12 -81 -24z m0 -247
c12 -40 24 -82 26 -93 2 -11 8 -31 14 -45 5 -14 11 -34 13 -45 1 -11 5 -24 8
-30 4 -5 10 -23 14 -40 4 -16 9 -37 11 -45 2 -8 26 -91 54 -185 28 -93 52
-177 54 -185 2 -8 6 -22 9 -30 3 -8 18 -58 33 -110 15 -52 29 -101 31 -107 5
-12 -24 -27 -70 -38 -12 -2 -130 -36 -262 -76 -334 -98 -499 -147 -527 -154
-10 -3 -26 -7 -35 -10 -28 -7 -196 -57 -213 -63 -8 -3 -19 -6 -25 -8 -5 -1
-45 -12 -88 -24 -43 -12 -80 -20 -81 -18 -3 4 -135 456 -141 483 -3 11 -16 58
-30 105 -14 47 -29 99 -34 115 -5 17 -19 63 -31 103 -12 40 -23 78 -24 85 -2
7 -8 32 -15 56 -14 48 -13 50 18 56 11 2 26 7 31 10 5 3 18 8 29 10 10 2 65
18 122 35 57 17 112 33 122 35 10 2 32 9 50 15 31 11 823 244 882 260 17 4 31
8 32 9 0 1 11 -32 23 -71z"/>
<path d="M3840 1329 c-14 -5 -81 -25 -150 -45 -69 -20 -147 -42 -175 -50 -27
-8 -57 -16 -65 -18 -8 -2 -71 -21 -140 -41 -69 -20 -156 -45 -195 -56 -38 -12
-91 -27 -117 -36 -55 -17 -55 -2 -6 -168 26 -89 75 -259 98 -340 5 -16 14 -48
21 -70 7 -22 12 -43 11 -48 -3 -10 17 -5 213 53 94 27 180 52 192 54 12 2 31
9 42 16 12 6 21 8 21 6 0 -3 12 -1 28 5 15 6 34 12 42 14 8 2 71 20 140 40 69
21 160 47 203 58 l78 21 -6 31 c-8 35 -22 85 -41 138 -8 20 -11 37 -8 37 4 0
2 6 -4 13 -6 7 -13 24 -16 37 -3 14 -14 54 -25 90 -62 206 -73 246 -74 258 0
14 -30 14 -67 1z"/>
</g>
</svg>
